<?xml version="1.0" encoding="utf-8" standalone="no"?>
<!DOCTYPE svg PUBLIC "-//W3C//DTD SVG 1.1//EN"
  "http://www.w3.org/Graphics/SVG/1.1/DTD/svg11.dtd">
<!-- Created with matplotlib (https://matplotlib.org/) -->
<svg height="345.6pt" version="1.1" viewBox="0 0 460.8 345.6" width="460.8pt" xmlns="http://www.w3.org/2000/svg" xmlns:xlink="http://www.w3.org/1999/xlink">
 <defs>
  <style type="text/css">
*{stroke-linecap:butt;stroke-linejoin:round;}
  </style>
 </defs>
 <g id="figure_1">
  <g id="patch_1">
   <path d="M 0 345.6 
L 460.8 345.6 
L 460.8 0 
L 0 0 
z
" style="fill:#ffffff;"/>
  </g>
  <g id="axes_1">
   <g id="patch_2">
    <path d="M 138.24 276.48 
L 368.64 276.48 
L 368.64 69.12 
L 138.24 69.12 
z
" style="fill:#ffffff;"/>
   </g>
   <g id="matplotlib.axis_1">
    <g id="xtick_1">
     <g id="line2d_1">
      <path clip-path="url(#pf0ebb1d498)" d="M 155.519915 276.48 
L 155.519915 69.12 
" style="fill:none;stroke:#cccccc;stroke-linecap:round;"/>
     </g>
     <g id="text_1">
      <!-- $\mathdefault{10^{0}}$ -->
      <defs>
       <path d="M 12.40625 8.296875 
L 28.515625 8.296875 
L 28.515625 63.921875 
L 10.984375 60.40625 
L 10.984375 69.390625 
L 28.421875 72.90625 
L 38.28125 72.90625 
L 38.28125 8.296875 
L 54.390625 8.296875 
L 54.390625 0 
L 12.40625 0 
z
" id="DejaVuSans-49"/>
       <path d="M 31.78125 66.40625 
Q 24.171875 66.40625 20.328125 58.90625 
Q 16.5 51.421875 16.5 36.375 
Q 16.5 21.390625 20.328125 13.890625 
Q 24.171875 6.390625 31.78125 6.390625 
Q 39.453125 6.390625 43.28125 13.890625 
Q 47.125 21.390625 47.125 36.375 
Q 47.125 51.421875 43.28125 58.90625 
Q 39.453125 66.40625 31.78125 66.40625 
z
M 31.78125 74.21875 
Q 44.046875 74.21875 50.515625 64.515625 
Q 56.984375 54.828125 56.984375 36.375 
Q 56.984375 17.96875 50.515625 8.265625 
Q 44.046875 -1.421875 31.78125 -1.421875 
Q 19.53125 -1.421875 13.0625 8.265625 
Q 6.59375 17.96875 6.59375 36.375 
Q 6.59375 54.828125 13.0625 64.515625 
Q 19.53125 74.21875 31.78125 74.21875 
z
" id="DejaVuSans-48"/>
      </defs>
      <g style="fill:#262626;" transform="translate(145.839915 294.338281)scale(0.11 -0.11)">
       <use transform="translate(0 0.765625)" xlink:href="#DejaVuSans-49"/>
       <use transform="translate(63.623047 0.765625)" xlink:href="#DejaVuSans-48"/>
       <use transform="translate(128.203125 39.046875)scale(0.7)" xlink:href="#DejaVuSans-48"/>
      </g>
     </g>
    </g>
    <g id="xtick_2">
     <g id="line2d_2">
      <path clip-path="url(#pf0ebb1d498)" d="M 212.922549 276.48 
L 212.922549 69.12 
" style="fill:none;stroke:#cccccc;stroke-linecap:round;"/>
     </g>
     <g id="text_2">
      <!-- $\mathdefault{10^{1}}$ -->
      <g style="fill:#262626;" transform="translate(203.242549 294.338281)scale(0.11 -0.11)">
       <use transform="translate(0 0.684375)" xlink:href="#DejaVuSans-49"/>
       <use transform="translate(63.623047 0.684375)" xlink:href="#DejaVuSans-48"/>
       <use transform="translate(128.203125 38.965625)scale(0.7)" xlink:href="#DejaVuSans-49"/>
      </g>
     </g>
    </g>
    <g id="xtick_3">
     <g id="line2d_3">
      <path clip-path="url(#pf0ebb1d498)" d="M 270.325183 276.48 
L 270.325183 69.12 
" style="fill:none;stroke:#cccccc;stroke-linecap:round;"/>
     </g>
     <g id="text_3">
      <!-- $\mathdefault{10^{2}}$ -->
      <defs>
       <path d="M 19.1875 8.296875 
L 53.609375 8.296875 
L 53.609375 0 
L 7.328125 0 
L 7.328125 8.296875 
Q 12.9375 14.109375 22.625 23.890625 
Q 32.328125 33.6875 34.8125 36.53125 
Q 39.546875 41.84375 41.421875 45.53125 
Q 43.3125 49.21875 43.3125 52.78125 
Q 43.3125 58.59375 39.234375 62.25 
Q 35.15625 65.921875 28.609375 65.921875 
Q 23.96875 65.921875 18.8125 64.3125 
Q 13.671875 62.703125 7.8125 59.421875 
L 7.8125 69.390625 
Q 13.765625 71.78125 18.9375 73 
Q 24.125 74.21875 28.421875 74.21875 
Q 39.75 74.21875 46.484375 68.546875 
Q 53.21875 62.890625 53.21875 53.421875 
Q 53.21875 48.921875 51.53125 44.890625 
Q 49.859375 40.875 45.40625 35.40625 
Q 44.1875 33.984375 37.640625 27.21875 
Q 31.109375 20.453125 19.1875 8.296875 
z
" id="DejaVuSans-50"/>
      </defs>
      <g style="fill:#262626;" transform="translate(260.645183 294.338281)scale(0.11 -0.11)">
       <use transform="translate(0 0.765625)" xlink:href="#DejaVuSans-49"/>
       <use transform="translate(63.623047 0.765625)" xlink:href="#DejaVuSans-48"/>
       <use transform="translate(128.203125 39.046875)scale(0.7)" xlink:href="#DejaVuSans-50"/>
      </g>
     </g>
    </g>
    <g id="xtick_4">
     <g id="line2d_4">
      <path clip-path="url(#pf0ebb1d498)" d="M 327.727818 276.48 
L 327.727818 69.12 
" style="fill:none;stroke:#cccccc;stroke-linecap:round;"/>
     </g>
     <g id="text_4">
      <!-- $\mathdefault{10^{3}}$ -->
      <defs>
       <path d="M 40.578125 39.3125 
Q 47.65625 37.796875 51.625 33 
Q 55.609375 28.21875 55.609375 21.1875 
Q 55.609375 10.40625 48.1875 4.484375 
Q 40.765625 -1.421875 27.09375 -1.421875 
Q 22.515625 -1.421875 17.65625 -0.515625 
Q 12.796875 0.390625 7.625 2.203125 
L 7.625 11.71875 
Q 11.71875 9.328125 16.59375 8.109375 
Q 21.484375 6.890625 26.8125 6.890625 
Q 36.078125 6.890625 40.9375 10.546875 
Q 45.796875 14.203125 45.796875 21.1875 
Q 45.796875 27.640625 41.28125 31.265625 
Q 36.765625 34.90625 28.71875 34.90625 
L 20.21875 34.90625 
L 20.21875 43.015625 
L 29.109375 43.015625 
Q 36.375 43.015625 40.234375 45.921875 
Q 44.09375 48.828125 44.09375 54.296875 
Q 44.09375 59.90625 40.109375 62.90625 
Q 36.140625 65.921875 28.71875 65.921875 
Q 24.65625 65.921875 20.015625 65.03125 
Q 15.375 64.15625 9.8125 62.3125 
L 9.8125 71.09375 
Q 15.4375 72.65625 20.34375 73.4375 
Q 25.25 74.21875 29.59375 74.21875 
Q 40.828125 74.21875 47.359375 69.109375 
Q 53.90625 64.015625 53.90625 55.328125 
Q 53.90625 49.265625 50.4375 45.09375 
Q 46.96875 40.921875 40.578125 39.3125 
z
" id="DejaVuSans-51"/>
      </defs>
      <g style="fill:#262626;" transform="translate(318.047818 294.338281)scale(0.11 -0.11)">
       <use transform="translate(0 0.765625)" xlink:href="#DejaVuSans-49"/>
       <use transform="translate(63.623047 0.765625)" xlink:href="#DejaVuSans-48"/>
       <use transform="translate(128.203125 39.046875)scale(0.7)" xlink:href="#DejaVuSans-51"/>
      </g>
     </g>
    </g>
    <g id="xtick_5"/>
    <g id="xtick_6"/>
    <g id="xtick_7"/>
    <g id="xtick_8"/>
    <g id="xtick_9"/>
    <g id="xtick_10"/>
    <g id="xtick_11"/>
    <g id="xtick_12"/>
    <g id="xtick_13"/>
    <g id="xtick_14"/>
    <g id="xtick_15"/>
    <g id="xtick_16"/>
    <g id="xtick_17"/>
    <g id="xtick_18"/>
    <g id="xtick_19"/>
    <g id="xtick_20"/>
    <g id="xtick_21"/>
    <g id="xtick_22"/>
    <g id="xtick_23"/>
    <g id="xtick_24"/>
    <g id="xtick_25"/>
    <g id="xtick_26"/>
    <g id="xtick_27"/>
    <g id="xtick_28"/>
    <g id="xtick_29"/>
    <g id="xtick_30"/>
    <g id="xtick_31"/>
    <g id="xtick_32"/>
    <g id="xtick_33"/>
    <g id="xtick_34"/>
    <g id="xtick_35"/>
    <g id="xtick_36"/>
    <g id="xtick_37"/>
    <g id="text_5">
     <!-- Count - pct_of_avg_value -->
     <defs>
      <path d="M 64.40625 67.28125 
L 64.40625 56.890625 
Q 59.421875 61.53125 53.78125 63.8125 
Q 48.140625 66.109375 41.796875 66.109375 
Q 29.296875 66.109375 22.65625 58.46875 
Q 16.015625 50.828125 16.015625 36.375 
Q 16.015625 21.96875 22.65625 14.328125 
Q 29.296875 6.6875 41.796875 6.6875 
Q 48.140625 6.6875 53.78125 8.984375 
Q 59.421875 11.28125 64.40625 15.921875 
L 64.40625 5.609375 
Q 59.234375 2.09375 53.4375 0.328125 
Q 47.65625 -1.421875 41.21875 -1.421875 
Q 24.65625 -1.421875 15.125 8.703125 
Q 5.609375 18.84375 5.609375 36.375 
Q 5.609375 53.953125 15.125 64.078125 
Q 24.65625 74.21875 41.21875 74.21875 
Q 47.75 74.21875 53.53125 72.484375 
Q 59.328125 70.75 64.40625 67.28125 
z
" id="DejaVuSans-67"/>
      <path d="M 30.609375 48.390625 
Q 23.390625 48.390625 19.1875 42.75 
Q 14.984375 37.109375 14.984375 27.296875 
Q 14.984375 17.484375 19.15625 11.84375 
Q 23.34375 6.203125 30.609375 6.203125 
Q 37.796875 6.203125 41.984375 11.859375 
Q 46.1875 17.53125 46.1875 27.296875 
Q 46.1875 37.015625 41.984375 42.703125 
Q 37.796875 48.390625 30.609375 48.390625 
z
M 30.609375 56 
Q 42.328125 56 49.015625 48.375 
Q 55.71875 40.765625 55.71875 27.296875 
Q 55.71875 13.875 49.015625 6.21875 
Q 42.328125 -1.421875 30.609375 -1.421875 
Q 18.84375 -1.421875 12.171875 6.21875 
Q 5.515625 13.875 5.515625 27.296875 
Q 5.515625 40.765625 12.171875 48.375 
Q 18.84375 56 30.609375 56 
z
" id="DejaVuSans-111"/>
      <path d="M 8.5 21.578125 
L 8.5 54.6875 
L 17.484375 54.6875 
L 17.484375 21.921875 
Q 17.484375 14.15625 20.5 10.265625 
Q 23.53125 6.390625 29.59375 6.390625 
Q 36.859375 6.390625 41.078125 11.03125 
Q 45.3125 15.671875 45.3125 23.6875 
L 45.3125 54.6875 
L 54.296875 54.6875 
L 54.296875 0 
L 45.3125 0 
L 45.3125 8.40625 
Q 42.046875 3.421875 37.71875 1 
Q 33.40625 -1.421875 27.6875 -1.421875 
Q 18.265625 -1.421875 13.375 4.4375 
Q 8.5 10.296875 8.5 21.578125 
z
M 31.109375 56 
z
" id="DejaVuSans-117"/>
      <path d="M 54.890625 33.015625 
L 54.890625 0 
L 45.90625 0 
L 45.90625 32.71875 
Q 45.90625 40.484375 42.875 44.328125 
Q 39.84375 48.1875 33.796875 48.1875 
Q 26.515625 48.1875 22.3125 43.546875 
Q 18.109375 38.921875 18.109375 30.90625 
L 18.109375 0 
L 9.078125 0 
L 9.078125 54.6875 
L 18.109375 54.6875 
L 18.109375 46.1875 
Q 21.34375 51.125 25.703125 53.5625 
Q 30.078125 56 35.796875 56 
Q 45.21875 56 50.046875 50.171875 
Q 54.890625 44.34375 54.890625 33.015625 
z
" id="DejaVuSans-110"/>
      <path d="M 18.3125 70.21875 
L 18.3125 54.6875 
L 36.8125 54.6875 
L 36.8125 47.703125 
L 18.3125 47.703125 
L 18.3125 18.015625 
Q 18.3125 11.328125 20.140625 9.421875 
Q 21.96875 7.515625 27.59375 7.515625 
L 36.8125 7.515625 
L 36.8125 0 
L 27.59375 0 
Q 17.1875 0 13.234375 3.875 
Q 9.28125 7.765625 9.28125 18.015625 
L 9.28125 47.703125 
L 2.6875 47.703125 
L 2.6875 54.6875 
L 9.28125 54.6875 
L 9.28125 70.21875 
z
" id="DejaVuSans-116"/>
      <path id="DejaVuSans-32"/>
      <path d="M 4.890625 31.390625 
L 31.203125 31.390625 
L 31.203125 23.390625 
L 4.890625 23.390625 
z
" id="DejaVuSans-45"/>
      <path d="M 18.109375 8.203125 
L 18.109375 -20.796875 
L 9.078125 -20.796875 
L 9.078125 54.6875 
L 18.109375 54.6875 
L 18.109375 46.390625 
Q 20.953125 51.265625 25.265625 53.625 
Q 29.59375 56 35.59375 56 
Q 45.5625 56 51.78125 48.09375 
Q 58.015625 40.1875 58.015625 27.296875 
Q 58.015625 14.40625 51.78125 6.484375 
Q 45.5625 -1.421875 35.59375 -1.421875 
Q 29.59375 -1.421875 25.265625 0.953125 
Q 20.953125 3.328125 18.109375 8.203125 
z
M 48.6875 27.296875 
Q 48.6875 37.203125 44.609375 42.84375 
Q 40.53125 48.484375 33.40625 48.484375 
Q 26.265625 48.484375 22.1875 42.84375 
Q 18.109375 37.203125 18.109375 27.296875 
Q 18.109375 17.390625 22.1875 11.75 
Q 26.265625 6.109375 33.40625 6.109375 
Q 40.53125 6.109375 44.609375 11.75 
Q 48.6875 17.390625 48.6875 27.296875 
z
" id="DejaVuSans-112"/>
      <path d="M 48.78125 52.59375 
L 48.78125 44.1875 
Q 44.96875 46.296875 41.140625 47.34375 
Q 37.3125 48.390625 33.40625 48.390625 
Q 24.65625 48.390625 19.8125 42.84375 
Q 14.984375 37.3125 14.984375 27.296875 
Q 14.984375 17.28125 19.8125 11.734375 
Q 24.65625 6.203125 33.40625 6.203125 
Q 37.3125 6.203125 41.140625 7.25 
Q 44.96875 8.296875 48.78125 10.40625 
L 48.78125 2.09375 
Q 45.015625 0.34375 40.984375 -0.53125 
Q 36.96875 -1.421875 32.421875 -1.421875 
Q 20.0625 -1.421875 12.78125 6.34375 
Q 5.515625 14.109375 5.515625 27.296875 
Q 5.515625 40.671875 12.859375 48.328125 
Q 20.21875 56 33.015625 56 
Q 37.15625 56 41.109375 55.140625 
Q 45.0625 54.296875 48.78125 52.59375 
z
" id="DejaVuSans-99"/>
      <path d="M 50.984375 -16.609375 
L 50.984375 -23.578125 
L -0.984375 -23.578125 
L -0.984375 -16.609375 
z
" id="DejaVuSans-95"/>
      <path d="M 37.109375 75.984375 
L 37.109375 68.5 
L 28.515625 68.5 
Q 23.6875 68.5 21.796875 66.546875 
Q 19.921875 64.59375 19.921875 59.515625 
L 19.921875 54.6875 
L 34.71875 54.6875 
L 34.71875 47.703125 
L 19.921875 47.703125 
L 19.921875 0 
L 10.890625 0 
L 10.890625 47.703125 
L 2.296875 47.703125 
L 2.296875 54.6875 
L 10.890625 54.6875 
L 10.890625 58.5 
Q 10.890625 67.625 15.140625 71.796875 
Q 19.390625 75.984375 28.609375 75.984375 
z
" id="DejaVuSans-102"/>
      <path d="M 34.28125 27.484375 
Q 23.390625 27.484375 19.1875 25 
Q 14.984375 22.515625 14.984375 16.5 
Q 14.984375 11.71875 18.140625 8.90625 
Q 21.296875 6.109375 26.703125 6.109375 
Q 34.1875 6.109375 38.703125 11.40625 
Q 43.21875 16.703125 43.21875 25.484375 
L 43.21875 27.484375 
z
M 52.203125 31.203125 
L 52.203125 0 
L 43.21875 0 
L 43.21875 8.296875 
Q 40.140625 3.328125 35.546875 0.953125 
Q 30.953125 -1.421875 24.3125 -1.421875 
Q 15.921875 -1.421875 10.953125 3.296875 
Q 6 8.015625 6 15.921875 
Q 6 25.140625 12.171875 29.828125 
Q 18.359375 34.515625 30.609375 34.515625 
L 43.21875 34.515625 
L 43.21875 35.40625 
Q 43.21875 41.609375 39.140625 45 
Q 35.0625 48.390625 27.6875 48.390625 
Q 23 48.390625 18.546875 47.265625 
Q 14.109375 46.140625 10.015625 43.890625 
L 10.015625 52.203125 
Q 14.9375 54.109375 19.578125 55.046875 
Q 24.21875 56 28.609375 56 
Q 40.484375 56 46.34375 49.84375 
Q 52.203125 43.703125 52.203125 31.203125 
z
" id="DejaVuSans-97"/>
      <path d="M 2.984375 54.6875 
L 12.5 54.6875 
L 29.59375 8.796875 
L 46.6875 54.6875 
L 56.203125 54.6875 
L 35.6875 0 
L 23.484375 0 
z
" id="DejaVuSans-118"/>
      <path d="M 45.40625 27.984375 
Q 45.40625 37.75 41.375 43.109375 
Q 37.359375 48.484375 30.078125 48.484375 
Q 22.859375 48.484375 18.828125 43.109375 
Q 14.796875 37.75 14.796875 27.984375 
Q 14.796875 18.265625 18.828125 12.890625 
Q 22.859375 7.515625 30.078125 7.515625 
Q 37.359375 7.515625 41.375 12.890625 
Q 45.40625 18.265625 45.40625 27.984375 
z
M 54.390625 6.78125 
Q 54.390625 -7.171875 48.1875 -13.984375 
Q 42 -20.796875 29.203125 -20.796875 
Q 24.46875 -20.796875 20.265625 -20.09375 
Q 16.0625 -19.390625 12.109375 -17.921875 
L 12.109375 -9.1875 
Q 16.0625 -11.328125 19.921875 -12.34375 
Q 23.78125 -13.375 27.78125 -13.375 
Q 36.625 -13.375 41.015625 -8.765625 
Q 45.40625 -4.15625 45.40625 5.171875 
L 45.40625 9.625 
Q 42.625 4.78125 38.28125 2.390625 
Q 33.9375 0 27.875 0 
Q 17.828125 0 11.671875 7.65625 
Q 5.515625 15.328125 5.515625 27.984375 
Q 5.515625 40.671875 11.671875 48.328125 
Q 17.828125 56 27.875 56 
Q 33.9375 56 38.28125 53.609375 
Q 42.625 51.21875 45.40625 46.390625 
L 45.40625 54.6875 
L 54.390625 54.6875 
z
" id="DejaVuSans-103"/>
      <path d="M 9.421875 75.984375 
L 18.40625 75.984375 
L 18.40625 0 
L 9.421875 0 
z
" id="DejaVuSans-108"/>
      <path d="M 56.203125 29.59375 
L 56.203125 25.203125 
L 14.890625 25.203125 
Q 15.484375 15.921875 20.484375 11.0625 
Q 25.484375 6.203125 34.421875 6.203125 
Q 39.59375 6.203125 44.453125 7.46875 
Q 49.3125 8.734375 54.109375 11.28125 
L 54.109375 2.78125 
Q 49.265625 0.734375 44.1875 -0.34375 
Q 39.109375 -1.421875 33.890625 -1.421875 
Q 20.796875 -1.421875 13.15625 6.1875 
Q 5.515625 13.8125 5.515625 26.8125 
Q 5.515625 40.234375 12.765625 48.109375 
Q 20.015625 56 32.328125 56 
Q 43.359375 56 49.78125 48.890625 
Q 56.203125 41.796875 56.203125 29.59375 
z
M 47.21875 32.234375 
Q 47.125 39.59375 43.09375 43.984375 
Q 39.0625 48.390625 32.421875 48.390625 
Q 24.90625 48.390625 20.390625 44.140625 
Q 15.875 39.890625 15.1875 32.171875 
z
" id="DejaVuSans-101"/>
     </defs>
     <g style="fill:#262626;" transform="translate(177.973125 309.744062)scale(0.12 -0.12)">
      <use xlink:href="#DejaVuSans-67"/>
      <use x="69.824219" xlink:href="#DejaVuSans-111"/>
      <use x="131.005859" xlink:href="#DejaVuSans-117"/>
      <use x="194.384766" xlink:href="#DejaVuSans-110"/>
      <use x="257.763672" xlink:href="#DejaVuSans-116"/>
      <use x="296.972656" xlink:href="#DejaVuSans-32"/>
      <use x="328.759766" xlink:href="#DejaVuSans-45"/>
      <use x="364.84375" xlink:href="#DejaVuSans-32"/>
      <use x="396.630859" xlink:href="#DejaVuSans-112"/>
      <use x="460.107422" xlink:href="#DejaVuSans-99"/>
      <use x="515.087891" xlink:href="#DejaVuSans-116"/>
      <use x="554.296875" xlink:href="#DejaVuSans-95"/>
      <use x="604.296875" xlink:href="#DejaVuSans-111"/>
      <use x="665.478516" xlink:href="#DejaVuSans-102"/>
      <use x="700.683594" xlink:href="#DejaVuSans-95"/>
      <use x="750.683594" xlink:href="#DejaVuSans-97"/>
      <use x="811.962891" xlink:href="#DejaVuSans-118"/>
      <use x="871.142578" xlink:href="#DejaVuSans-103"/>
      <use x="934.619141" xlink:href="#DejaVuSans-95"/>
      <use x="984.619141" xlink:href="#DejaVuSans-118"/>
      <use x="1043.798828" xlink:href="#DejaVuSans-97"/>
      <use x="1105.078125" xlink:href="#DejaVuSans-108"/>
      <use x="1132.861328" xlink:href="#DejaVuSans-117"/>
      <use x="1196.240234" xlink:href="#DejaVuSans-101"/>
     </g>
    </g>
   </g>
   <g id="matplotlib.axis_2">
    <g id="ytick_1">
     <g id="line2d_5">
      <path clip-path="url(#pf0ebb1d498)" d="M 138.24 81.585924 
L 368.64 81.585924 
" style="fill:none;stroke:#cccccc;stroke-linecap:round;"/>
     </g>
    </g>
    <g id="ytick_2">
     <g id="line2d_6">
      <path clip-path="url(#pf0ebb1d498)" d="M 138.24 89.187097 
L 368.64 89.187097 
" style="fill:none;stroke:#cccccc;stroke-linecap:round;"/>
     </g>
     <g id="text_6">
      <!-- CompatTelR -->
      <defs>
       <path d="M 52 44.1875 
Q 55.375 50.25 60.0625 53.125 
Q 64.75 56 71.09375 56 
Q 79.640625 56 84.28125 50.015625 
Q 88.921875 44.046875 88.921875 33.015625 
L 88.921875 0 
L 79.890625 0 
L 79.890625 32.71875 
Q 79.890625 40.578125 77.09375 44.375 
Q 74.3125 48.1875 68.609375 48.1875 
Q 61.625 48.1875 57.5625 43.546875 
Q 53.515625 38.921875 53.515625 30.90625 
L 53.515625 0 
L 44.484375 0 
L 44.484375 32.71875 
Q 44.484375 40.625 41.703125 44.40625 
Q 38.921875 48.1875 33.109375 48.1875 
Q 26.21875 48.1875 22.15625 43.53125 
Q 18.109375 38.875 18.109375 30.90625 
L 18.109375 0 
L 9.078125 0 
L 9.078125 54.6875 
L 18.109375 54.6875 
L 18.109375 46.1875 
Q 21.1875 51.21875 25.484375 53.609375 
Q 29.78125 56 35.6875 56 
Q 41.65625 56 45.828125 52.96875 
Q 50 49.953125 52 44.1875 
z
" id="DejaVuSans-109"/>
       <path d="M -0.296875 72.90625 
L 61.375 72.90625 
L 61.375 64.59375 
L 35.5 64.59375 
L 35.5 0 
L 25.59375 0 
L 25.59375 64.59375 
L -0.296875 64.59375 
z
" id="DejaVuSans-84"/>
       <path d="M 44.390625 34.1875 
Q 47.5625 33.109375 50.5625 29.59375 
Q 53.5625 26.078125 56.59375 19.921875 
L 66.609375 0 
L 56 0 
L 46.6875 18.703125 
Q 43.0625 26.03125 39.671875 28.421875 
Q 36.28125 30.8125 30.421875 30.8125 
L 19.671875 30.8125 
L 19.671875 0 
L 9.8125 0 
L 9.8125 72.90625 
L 32.078125 72.90625 
Q 44.578125 72.90625 50.734375 67.671875 
Q 56.890625 62.453125 56.890625 51.90625 
Q 56.890625 45.015625 53.6875 40.46875 
Q 50.484375 35.9375 44.390625 34.1875 
z
M 19.671875 64.796875 
L 19.671875 38.921875 
L 32.078125 38.921875 
Q 39.203125 38.921875 42.84375 42.21875 
Q 46.484375 45.515625 46.484375 51.90625 
Q 46.484375 58.296875 42.84375 61.546875 
Q 39.203125 64.796875 32.078125 64.796875 
z
" id="DejaVuSans-82"/>
      </defs>
      <g style="fill:#262626;" transform="translate(61.42 93.366237)scale(0.11 -0.11)">
       <use xlink:href="#DejaVuSans-67"/>
       <use x="69.824219" xlink:href="#DejaVuSans-111"/>
       <use x="131.005859" xlink:href="#DejaVuSans-109"/>
       <use x="228.417969" xlink:href="#DejaVuSans-112"/>
       <use x="291.894531" xlink:href="#DejaVuSans-97"/>
       <use x="353.173828" xlink:href="#DejaVuSans-116"/>
       <use x="392.382812" xlink:href="#DejaVuSans-84"/>
       <use x="453.201172" xlink:href="#DejaVuSans-101"/>
       <use x="514.724609" xlink:href="#DejaVuSans-108"/>
       <use x="542.507812" xlink:href="#DejaVuSans-82"/>
      </g>
     </g>
    </g>
    <g id="ytick_3">
     <g id="line2d_7">
      <path clip-path="url(#pf0ebb1d498)" d="M 138.24 96.78827 
L 368.64 96.78827 
" style="fill:none;stroke:#cccccc;stroke-linecap:round;"/>
     </g>
     <g id="text_7">
      <!-- MpCmdRun.e -->
      <defs>
       <path d="M 9.8125 72.90625 
L 24.515625 72.90625 
L 43.109375 23.296875 
L 61.8125 72.90625 
L 76.515625 72.90625 
L 76.515625 0 
L 66.890625 0 
L 66.890625 64.015625 
L 48.09375 14.015625 
L 38.1875 14.015625 
L 19.390625 64.015625 
L 19.390625 0 
L 9.8125 0 
z
" id="DejaVuSans-77"/>
       <path d="M 45.40625 46.390625 
L 45.40625 75.984375 
L 54.390625 75.984375 
L 54.390625 0 
L 45.40625 0 
L 45.40625 8.203125 
Q 42.578125 3.328125 38.25 0.953125 
Q 33.9375 -1.421875 27.875 -1.421875 
Q 17.96875 -1.421875 11.734375 6.484375 
Q 5.515625 14.40625 5.515625 27.296875 
Q 5.515625 40.1875 11.734375 48.09375 
Q 17.96875 56 27.875 56 
Q 33.9375 56 38.25 53.625 
Q 42.578125 51.265625 45.40625 46.390625 
z
M 14.796875 27.296875 
Q 14.796875 17.390625 18.875 11.75 
Q 22.953125 6.109375 30.078125 6.109375 
Q 37.203125 6.109375 41.296875 11.75 
Q 45.40625 17.390625 45.40625 27.296875 
Q 45.40625 37.203125 41.296875 42.84375 
Q 37.203125 48.484375 30.078125 48.484375 
Q 22.953125 48.484375 18.875 42.84375 
Q 14.796875 37.203125 14.796875 27.296875 
z
" id="DejaVuSans-100"/>
       <path d="M 10.6875 12.40625 
L 21 12.40625 
L 21 0 
L 10.6875 0 
z
" id="DejaVuSans-46"/>
      </defs>
      <g style="fill:#262626;" transform="translate(55.043438 100.96741)scale(0.11 -0.11)">
       <use xlink:href="#DejaVuSans-77"/>
       <use x="86.279297" xlink:href="#DejaVuSans-112"/>
       <use x="149.755859" xlink:href="#DejaVuSans-67"/>
       <use x="219.580078" xlink:href="#DejaVuSans-109"/>
       <use x="316.992188" xlink:href="#DejaVuSans-100"/>
       <use x="380.46875" xlink:href="#DejaVuSans-82"/>
       <use x="449.888672" xlink:href="#DejaVuSans-117"/>
       <use x="513.267578" xlink:href="#DejaVuSans-110"/>
       <use x="576.646484" xlink:href="#DejaVuSans-46"/>
       <use x="608.433594" xlink:href="#DejaVuSans-101"/>
      </g>
     </g>
    </g>
    <g id="ytick_4">
     <g id="line2d_8">
      <path clip-path="url(#pf0ebb1d498)" d="M 138.24 104.389443 
L 368.64 104.389443 
" style="fill:none;stroke:#cccccc;stroke-linecap:round;"/>
     </g>
     <g id="text_8">
      <!-- NVIDIA Web -->
      <defs>
       <path d="M 9.8125 72.90625 
L 23.09375 72.90625 
L 55.421875 11.921875 
L 55.421875 72.90625 
L 64.984375 72.90625 
L 64.984375 0 
L 51.703125 0 
L 19.390625 60.984375 
L 19.390625 0 
L 9.8125 0 
z
" id="DejaVuSans-78"/>
       <path d="M 28.609375 0 
L 0.78125 72.90625 
L 11.078125 72.90625 
L 34.1875 11.53125 
L 57.328125 72.90625 
L 67.578125 72.90625 
L 39.796875 0 
z
" id="DejaVuSans-86"/>
       <path d="M 9.8125 72.90625 
L 19.671875 72.90625 
L 19.671875 0 
L 9.8125 0 
z
" id="DejaVuSans-73"/>
       <path d="M 19.671875 64.796875 
L 19.671875 8.109375 
L 31.59375 8.109375 
Q 46.6875 8.109375 53.6875 14.9375 
Q 60.6875 21.78125 60.6875 36.53125 
Q 60.6875 51.171875 53.6875 57.984375 
Q 46.6875 64.796875 31.59375 64.796875 
z
M 9.8125 72.90625 
L 30.078125 72.90625 
Q 51.265625 72.90625 61.171875 64.09375 
Q 71.09375 55.28125 71.09375 36.53125 
Q 71.09375 17.671875 61.125 8.828125 
Q 51.171875 0 30.078125 0 
L 9.8125 0 
z
" id="DejaVuSans-68"/>
       <path d="M 34.1875 63.1875 
L 20.796875 26.90625 
L 47.609375 26.90625 
z
M 28.609375 72.90625 
L 39.796875 72.90625 
L 67.578125 0 
L 57.328125 0 
L 50.6875 18.703125 
L 17.828125 18.703125 
L 11.1875 0 
L 0.78125 0 
z
" id="DejaVuSans-65"/>
       <path d="M 3.328125 72.90625 
L 13.28125 72.90625 
L 28.609375 11.28125 
L 43.890625 72.90625 
L 54.984375 72.90625 
L 70.3125 11.28125 
L 85.59375 72.90625 
L 95.609375 72.90625 
L 77.296875 0 
L 64.890625 0 
L 49.515625 63.28125 
L 33.984375 0 
L 21.578125 0 
z
" id="DejaVuSans-87"/>
       <path d="M 48.6875 27.296875 
Q 48.6875 37.203125 44.609375 42.84375 
Q 40.53125 48.484375 33.40625 48.484375 
Q 26.265625 48.484375 22.1875 42.84375 
Q 18.109375 37.203125 18.109375 27.296875 
Q 18.109375 17.390625 22.1875 11.75 
Q 26.265625 6.109375 33.40625 6.109375 
Q 40.53125 6.109375 44.609375 11.75 
Q 48.6875 17.390625 48.6875 27.296875 
z
M 18.109375 46.390625 
Q 20.953125 51.265625 25.265625 53.625 
Q 29.59375 56 35.59375 56 
Q 45.5625 56 51.78125 48.09375 
Q 58.015625 40.1875 58.015625 27.296875 
Q 58.015625 14.40625 51.78125 6.484375 
Q 45.5625 -1.421875 35.59375 -1.421875 
Q 29.59375 -1.421875 25.265625 0.953125 
Q 20.953125 3.328125 18.109375 8.203125 
L 18.109375 0 
L 9.078125 0 
L 9.078125 75.984375 
L 18.109375 75.984375 
z
" id="DejaVuSans-98"/>
      </defs>
      <g style="fill:#262626;" transform="translate(62.385938 108.568583)scale(0.11 -0.11)">
       <use xlink:href="#DejaVuSans-78"/>
       <use x="74.804688" xlink:href="#DejaVuSans-86"/>
       <use x="143.212891" xlink:href="#DejaVuSans-73"/>
       <use x="172.705078" xlink:href="#DejaVuSans-68"/>
       <use x="249.707031" xlink:href="#DejaVuSans-73"/>
       <use x="279.199219" xlink:href="#DejaVuSans-65"/>
       <use x="347.607422" xlink:href="#DejaVuSans-32"/>
       <use x="379.394531" xlink:href="#DejaVuSans-87"/>
       <use x="478.193359" xlink:href="#DejaVuSans-101"/>
       <use x="539.716797" xlink:href="#DejaVuSans-98"/>
      </g>
     </g>
    </g>
    <g id="ytick_5">
     <g id="line2d_9">
      <path clip-path="url(#pf0ebb1d498)" d="M 138.24 111.990616 
L 368.64 111.990616 
" style="fill:none;stroke:#cccccc;stroke-linecap:round;"/>
     </g>
     <g id="text_9">
      <!-- RNDBWM.exe -->
      <defs>
       <path d="M 19.671875 34.8125 
L 19.671875 8.109375 
L 35.5 8.109375 
Q 43.453125 8.109375 47.28125 11.40625 
Q 51.125 14.703125 51.125 21.484375 
Q 51.125 28.328125 47.28125 31.5625 
Q 43.453125 34.8125 35.5 34.8125 
z
M 19.671875 64.796875 
L 19.671875 42.828125 
L 34.28125 42.828125 
Q 41.5 42.828125 45.03125 45.53125 
Q 48.578125 48.25 48.578125 53.8125 
Q 48.578125 59.328125 45.03125 62.0625 
Q 41.5 64.796875 34.28125 64.796875 
z
M 9.8125 72.90625 
L 35.015625 72.90625 
Q 46.296875 72.90625 52.390625 68.21875 
Q 58.5 63.53125 58.5 54.890625 
Q 58.5 48.1875 55.375 44.234375 
Q 52.25 40.28125 46.1875 39.3125 
Q 53.46875 37.75 57.5 32.78125 
Q 61.53125 27.828125 61.53125 20.40625 
Q 61.53125 10.640625 54.890625 5.3125 
Q 48.25 0 35.984375 0 
L 9.8125 0 
z
" id="DejaVuSans-66"/>
       <path d="M 54.890625 54.6875 
L 35.109375 28.078125 
L 55.90625 0 
L 45.3125 0 
L 29.390625 21.484375 
L 13.484375 0 
L 2.875 0 
L 24.125 28.609375 
L 4.6875 54.6875 
L 15.28125 54.6875 
L 29.78125 35.203125 
L 44.28125 54.6875 
z
" id="DejaVuSans-120"/>
      </defs>
      <g style="fill:#262626;" transform="translate(52.951719 116.169756)scale(0.11 -0.11)">
       <use xlink:href="#DejaVuSans-82"/>
       <use x="69.482422" xlink:href="#DejaVuSans-78"/>
       <use x="144.287109" xlink:href="#DejaVuSans-68"/>
       <use x="221.289062" xlink:href="#DejaVuSans-66"/>
       <use x="289.845703" xlink:href="#DejaVuSans-87"/>
       <use x="388.722656" xlink:href="#DejaVuSans-77"/>
       <use x="475.001953" xlink:href="#DejaVuSans-46"/>
       <use x="506.789062" xlink:href="#DejaVuSans-101"/>
       <use x="568.296875" xlink:href="#DejaVuSans-120"/>
       <use x="627.429688" xlink:href="#DejaVuSans-101"/>
      </g>
     </g>
    </g>
    <g id="ytick_6">
     <g id="line2d_10">
      <path clip-path="url(#pf0ebb1d498)" d="M 138.24 119.591789 
L 368.64 119.591789 
" style="fill:none;stroke:#cccccc;stroke-linecap:round;"/>
     </g>
     <g id="text_10">
      <!-- TPAutoConn -->
      <defs>
       <path d="M 19.671875 64.796875 
L 19.671875 37.40625 
L 32.078125 37.40625 
Q 38.96875 37.40625 42.71875 40.96875 
Q 46.484375 44.53125 46.484375 51.125 
Q 46.484375 57.671875 42.71875 61.234375 
Q 38.96875 64.796875 32.078125 64.796875 
z
M 9.8125 72.90625 
L 32.078125 72.90625 
Q 44.34375 72.90625 50.609375 67.359375 
Q 56.890625 61.8125 56.890625 51.125 
Q 56.890625 40.328125 50.609375 34.8125 
Q 44.34375 29.296875 32.078125 29.296875 
L 19.671875 29.296875 
L 19.671875 0 
L 9.8125 0 
z
" id="DejaVuSans-80"/>
      </defs>
      <g style="fill:#262626;" transform="translate(61.505938 123.770929)scale(0.11 -0.11)">
       <use xlink:href="#DejaVuSans-84"/>
       <use x="61.083984" xlink:href="#DejaVuSans-80"/>
       <use x="121.292969" xlink:href="#DejaVuSans-65"/>
       <use x="189.701172" xlink:href="#DejaVuSans-117"/>
       <use x="253.080078" xlink:href="#DejaVuSans-116"/>
       <use x="292.289062" xlink:href="#DejaVuSans-111"/>
       <use x="353.470703" xlink:href="#DejaVuSans-67"/>
       <use x="423.294922" xlink:href="#DejaVuSans-111"/>
       <use x="484.476562" xlink:href="#DejaVuSans-110"/>
       <use x="547.855469" xlink:href="#DejaVuSans-110"/>
      </g>
     </g>
    </g>
    <g id="ytick_7">
     <g id="line2d_11">
      <path clip-path="url(#pf0ebb1d498)" d="M 138.24 127.192962 
L 368.64 127.192962 
" style="fill:none;stroke:#cccccc;stroke-linecap:round;"/>
     </g>
     <g id="text_11">
      <!-- cmd.exe -->
      <g style="fill:#262626;" transform="translate(81.457188 131.372103)scale(0.11 -0.11)">
       <use xlink:href="#DejaVuSans-99"/>
       <use x="54.980469" xlink:href="#DejaVuSans-109"/>
       <use x="152.392578" xlink:href="#DejaVuSans-100"/>
       <use x="215.869141" xlink:href="#DejaVuSans-46"/>
       <use x="247.65625" xlink:href="#DejaVuSans-101"/>
       <use x="309.164062" xlink:href="#DejaVuSans-120"/>
       <use x="368.296875" xlink:href="#DejaVuSans-101"/>
      </g>
     </g>
    </g>
    <g id="ytick_8">
     <g id="line2d_12">
      <path clip-path="url(#pf0ebb1d498)" d="M 138.24 134.794135 
L 368.64 134.794135 
" style="fill:none;stroke:#cccccc;stroke-linecap:round;"/>
     </g>
     <g id="text_12">
      <!-- dbus-daemo -->
      <defs>
       <path d="M 44.28125 53.078125 
L 44.28125 44.578125 
Q 40.484375 46.53125 36.375 47.5 
Q 32.28125 48.484375 27.875 48.484375 
Q 21.1875 48.484375 17.84375 46.4375 
Q 14.5 44.390625 14.5 40.28125 
Q 14.5 37.15625 16.890625 35.375 
Q 19.28125 33.59375 26.515625 31.984375 
L 29.59375 31.296875 
Q 39.15625 29.25 43.1875 25.515625 
Q 47.21875 21.78125 47.21875 15.09375 
Q 47.21875 7.46875 41.1875 3.015625 
Q 35.15625 -1.421875 24.609375 -1.421875 
Q 20.21875 -1.421875 15.453125 -0.5625 
Q 10.6875 0.296875 5.421875 2 
L 5.421875 11.28125 
Q 10.40625 8.6875 15.234375 7.390625 
Q 20.0625 6.109375 24.8125 6.109375 
Q 31.15625 6.109375 34.5625 8.28125 
Q 37.984375 10.453125 37.984375 14.40625 
Q 37.984375 18.0625 35.515625 20.015625 
Q 33.0625 21.96875 24.703125 23.78125 
L 21.578125 24.515625 
Q 13.234375 26.265625 9.515625 29.90625 
Q 5.8125 33.546875 5.8125 39.890625 
Q 5.8125 47.609375 11.28125 51.796875 
Q 16.75 56 26.8125 56 
Q 31.78125 56 36.171875 55.265625 
Q 40.578125 54.546875 44.28125 53.078125 
z
" id="DejaVuSans-115"/>
      </defs>
      <g style="fill:#262626;" transform="translate(60.165313 138.973276)scale(0.11 -0.11)">
       <use xlink:href="#DejaVuSans-100"/>
       <use x="63.476562" xlink:href="#DejaVuSans-98"/>
       <use x="126.953125" xlink:href="#DejaVuSans-117"/>
       <use x="190.332031" xlink:href="#DejaVuSans-115"/>
       <use x="242.431641" xlink:href="#DejaVuSans-45"/>
       <use x="278.515625" xlink:href="#DejaVuSans-100"/>
       <use x="341.992188" xlink:href="#DejaVuSans-97"/>
       <use x="403.271484" xlink:href="#DejaVuSans-101"/>
       <use x="464.794922" xlink:href="#DejaVuSans-109"/>
       <use x="562.207031" xlink:href="#DejaVuSans-111"/>
      </g>
     </g>
    </g>
    <g id="ytick_9">
     <g id="line2d_13">
      <path clip-path="url(#pf0ebb1d498)" d="M 138.24 142.395308 
L 368.64 142.395308 
" style="fill:none;stroke:#cccccc;stroke-linecap:round;"/>
     </g>
     <g id="text_13">
      <!-- ee-host-hu -->
      <defs>
       <path d="M 54.890625 33.015625 
L 54.890625 0 
L 45.90625 0 
L 45.90625 32.71875 
Q 45.90625 40.484375 42.875 44.328125 
Q 39.84375 48.1875 33.796875 48.1875 
Q 26.515625 48.1875 22.3125 43.546875 
Q 18.109375 38.921875 18.109375 30.90625 
L 18.109375 0 
L 9.078125 0 
L 9.078125 75.984375 
L 18.109375 75.984375 
L 18.109375 46.1875 
Q 21.34375 51.125 25.703125 53.5625 
Q 30.078125 56 35.796875 56 
Q 45.21875 56 50.046875 50.171875 
Q 54.890625 44.34375 54.890625 33.015625 
z
" id="DejaVuSans-104"/>
      </defs>
      <g style="fill:#262626;" transform="translate(69.578906 146.574449)scale(0.11 -0.11)">
       <use xlink:href="#DejaVuSans-101"/>
       <use x="61.523438" xlink:href="#DejaVuSans-101"/>
       <use x="123.046875" xlink:href="#DejaVuSans-45"/>
       <use x="159.130859" xlink:href="#DejaVuSans-104"/>
       <use x="222.509766" xlink:href="#DejaVuSans-111"/>
       <use x="283.691406" xlink:href="#DejaVuSans-115"/>
       <use x="335.791016" xlink:href="#DejaVuSans-116"/>
       <use x="375" xlink:href="#DejaVuSans-45"/>
       <use x="411.083984" xlink:href="#DejaVuSans-104"/>
       <use x="474.462891" xlink:href="#DejaVuSans-117"/>
      </g>
     </g>
    </g>
    <g id="ytick_10">
     <g id="line2d_14">
      <path clip-path="url(#pf0ebb1d498)" d="M 138.24 149.996481 
L 368.64 149.996481 
" style="fill:none;stroke:#cccccc;stroke-linecap:round;"/>
     </g>
     <g id="text_14">
      <!-- fmplugin.e -->
      <defs>
       <path d="M 9.421875 54.6875 
L 18.40625 54.6875 
L 18.40625 0 
L 9.421875 0 
z
M 9.421875 75.984375 
L 18.40625 75.984375 
L 18.40625 64.59375 
L 9.421875 64.59375 
z
" id="DejaVuSans-105"/>
      </defs>
      <g style="fill:#262626;" transform="translate(69.867656 154.175622)scale(0.11 -0.11)">
       <use xlink:href="#DejaVuSans-102"/>
       <use x="35.205078" xlink:href="#DejaVuSans-109"/>
       <use x="132.617188" xlink:href="#DejaVuSans-112"/>
       <use x="196.09375" xlink:href="#DejaVuSans-108"/>
       <use x="223.876953" xlink:href="#DejaVuSans-117"/>
       <use x="287.255859" xlink:href="#DejaVuSans-103"/>
       <use x="350.732422" xlink:href="#DejaVuSans-105"/>
       <use x="378.515625" xlink:href="#DejaVuSans-110"/>
       <use x="441.894531" xlink:href="#DejaVuSans-46"/>
       <use x="473.681641" xlink:href="#DejaVuSans-101"/>
      </g>
     </g>
    </g>
    <g id="ytick_11">
     <g id="line2d_15">
      <path clip-path="url(#pf0ebb1d498)" d="M 138.24 157.597654 
L 368.64 157.597654 
" style="fill:none;stroke:#cccccc;stroke-linecap:round;"/>
     </g>
     <g id="text_15">
      <!-- gpupdate.e -->
      <g style="fill:#262626;" transform="translate(65.749531 161.776795)scale(0.11 -0.11)">
       <use xlink:href="#DejaVuSans-103"/>
       <use x="63.476562" xlink:href="#DejaVuSans-112"/>
       <use x="126.953125" xlink:href="#DejaVuSans-117"/>
       <use x="190.332031" xlink:href="#DejaVuSans-112"/>
       <use x="253.808594" xlink:href="#DejaVuSans-100"/>
       <use x="317.285156" xlink:href="#DejaVuSans-97"/>
       <use x="378.564453" xlink:href="#DejaVuSans-116"/>
       <use x="417.773438" xlink:href="#DejaVuSans-101"/>
       <use x="479.296875" xlink:href="#DejaVuSans-46"/>
       <use x="511.083984" xlink:href="#DejaVuSans-101"/>
      </g>
     </g>
    </g>
    <g id="ytick_12">
     <g id="line2d_16">
      <path clip-path="url(#pf0ebb1d498)" d="M 138.24 165.198827 
L 368.64 165.198827 
" style="fill:none;stroke:#cccccc;stroke-linecap:round;"/>
     </g>
     <g id="text_16">
      <!-- msmdsrv.ex -->
      <defs>
       <path d="M 41.109375 46.296875 
Q 39.59375 47.171875 37.8125 47.578125 
Q 36.03125 48 33.890625 48 
Q 26.265625 48 22.1875 43.046875 
Q 18.109375 38.09375 18.109375 28.8125 
L 18.109375 0 
L 9.078125 0 
L 9.078125 54.6875 
L 18.109375 54.6875 
L 18.109375 46.1875 
Q 20.953125 51.171875 25.484375 53.578125 
Q 30.03125 56 36.53125 56 
Q 37.453125 56 38.578125 55.875 
Q 39.703125 55.765625 41.0625 55.515625 
z
" id="DejaVuSans-114"/>
      </defs>
      <g style="fill:#262626;" transform="translate(61.072813 169.377968)scale(0.11 -0.11)">
       <use xlink:href="#DejaVuSans-109"/>
       <use x="97.412109" xlink:href="#DejaVuSans-115"/>
       <use x="149.511719" xlink:href="#DejaVuSans-109"/>
       <use x="246.923828" xlink:href="#DejaVuSans-100"/>
       <use x="310.400391" xlink:href="#DejaVuSans-115"/>
       <use x="362.5" xlink:href="#DejaVuSans-114"/>
       <use x="403.613281" xlink:href="#DejaVuSans-118"/>
       <use x="462.683594" xlink:href="#DejaVuSans-46"/>
       <use x="494.470703" xlink:href="#DejaVuSans-101"/>
       <use x="555.978516" xlink:href="#DejaVuSans-120"/>
      </g>
     </g>
    </g>
    <g id="ytick_13">
     <g id="line2d_17">
      <path clip-path="url(#pf0ebb1d498)" d="M 138.24 172.8 
L 368.64 172.8 
" style="fill:none;stroke:#cccccc;stroke-linecap:round;"/>
     </g>
     <g id="text_17">
      <!-- ngentask.e -->
      <defs>
       <path d="M 9.078125 75.984375 
L 18.109375 75.984375 
L 18.109375 31.109375 
L 44.921875 54.6875 
L 56.390625 54.6875 
L 27.390625 29.109375 
L 57.625 0 
L 45.90625 0 
L 18.109375 26.703125 
L 18.109375 0 
L 9.078125 0 
z
" id="DejaVuSans-107"/>
      </defs>
      <g style="fill:#262626;" transform="translate(67.628125 176.979141)scale(0.11 -0.11)">
       <use xlink:href="#DejaVuSans-110"/>
       <use x="63.378906" xlink:href="#DejaVuSans-103"/>
       <use x="126.855469" xlink:href="#DejaVuSans-101"/>
       <use x="188.378906" xlink:href="#DejaVuSans-110"/>
       <use x="251.757812" xlink:href="#DejaVuSans-116"/>
       <use x="290.966797" xlink:href="#DejaVuSans-97"/>
       <use x="352.246094" xlink:href="#DejaVuSans-115"/>
       <use x="404.345703" xlink:href="#DejaVuSans-107"/>
       <use x="462.255859" xlink:href="#DejaVuSans-46"/>
       <use x="494.042969" xlink:href="#DejaVuSans-101"/>
      </g>
     </g>
    </g>
    <g id="ytick_14">
     <g id="line2d_18">
      <path clip-path="url(#pf0ebb1d498)" d="M 138.24 180.401173 
L 368.64 180.401173 
" style="fill:none;stroke:#cccccc;stroke-linecap:round;"/>
     </g>
     <g id="text_18">
      <!-- node.exe -->
      <g style="fill:#262626;" transform="translate(77.749844 184.580314)scale(0.11 -0.11)">
       <use xlink:href="#DejaVuSans-110"/>
       <use x="63.378906" xlink:href="#DejaVuSans-111"/>
       <use x="124.560547" xlink:href="#DejaVuSans-100"/>
       <use x="188.037109" xlink:href="#DejaVuSans-101"/>
       <use x="249.560547" xlink:href="#DejaVuSans-46"/>
       <use x="281.347656" xlink:href="#DejaVuSans-101"/>
       <use x="342.855469" xlink:href="#DejaVuSans-120"/>
       <use x="401.988281" xlink:href="#DejaVuSans-101"/>
      </g>
     </g>
    </g>
    <g id="ytick_15">
     <g id="line2d_19">
      <path clip-path="url(#pf0ebb1d498)" d="M 138.24 188.002346 
L 368.64 188.002346 
" style="fill:none;stroke:#cccccc;stroke-linecap:round;"/>
     </g>
     <g id="text_19">
      <!-- openvpn.ex -->
      <g style="fill:#262626;" transform="translate(64.047969 192.181487)scale(0.11 -0.11)">
       <use xlink:href="#DejaVuSans-111"/>
       <use x="61.181641" xlink:href="#DejaVuSans-112"/>
       <use x="124.658203" xlink:href="#DejaVuSans-101"/>
       <use x="186.181641" xlink:href="#DejaVuSans-110"/>
       <use x="249.560547" xlink:href="#DejaVuSans-118"/>
       <use x="308.740234" xlink:href="#DejaVuSans-112"/>
       <use x="372.216797" xlink:href="#DejaVuSans-110"/>
       <use x="435.595703" xlink:href="#DejaVuSans-46"/>
       <use x="467.382812" xlink:href="#DejaVuSans-101"/>
       <use x="528.890625" xlink:href="#DejaVuSans-120"/>
      </g>
     </g>
    </g>
    <g id="ytick_16">
     <g id="line2d_20">
      <path clip-path="url(#pf0ebb1d498)" d="M 138.24 195.603519 
L 368.64 195.603519 
" style="fill:none;stroke:#cccccc;stroke-linecap:round;"/>
     </g>
     <g id="text_20">
      <!-- pcdrwi.exe -->
      <defs>
       <path d="M 4.203125 54.6875 
L 13.1875 54.6875 
L 24.421875 12.015625 
L 35.59375 54.6875 
L 46.1875 54.6875 
L 57.421875 12.015625 
L 68.609375 54.6875 
L 77.59375 54.6875 
L 63.28125 0 
L 52.6875 0 
L 40.921875 44.828125 
L 29.109375 0 
L 18.5 0 
z
" id="DejaVuSans-119"/>
      </defs>
      <g style="fill:#262626;" transform="translate(68.614688 199.78266)scale(0.11 -0.11)">
       <use xlink:href="#DejaVuSans-112"/>
       <use x="63.476562" xlink:href="#DejaVuSans-99"/>
       <use x="118.457031" xlink:href="#DejaVuSans-100"/>
       <use x="181.933594" xlink:href="#DejaVuSans-114"/>
       <use x="223.046875" xlink:href="#DejaVuSans-119"/>
       <use x="304.833984" xlink:href="#DejaVuSans-105"/>
       <use x="332.617188" xlink:href="#DejaVuSans-46"/>
       <use x="364.404297" xlink:href="#DejaVuSans-101"/>
       <use x="425.912109" xlink:href="#DejaVuSans-120"/>
       <use x="485.044922" xlink:href="#DejaVuSans-101"/>
      </g>
     </g>
    </g>
    <g id="ytick_17">
     <g id="line2d_21">
      <path clip-path="url(#pf0ebb1d498)" d="M 138.24 203.204692 
L 368.64 203.204692 
" style="fill:none;stroke:#cccccc;stroke-linecap:round;"/>
     </g>
     <g id="text_21">
      <!-- wlanext.ex -->
      <g style="fill:#262626;" transform="translate(68.612969 207.383833)scale(0.11 -0.11)">
       <use xlink:href="#DejaVuSans-119"/>
       <use x="81.787109" xlink:href="#DejaVuSans-108"/>
       <use x="109.570312" xlink:href="#DejaVuSans-97"/>
       <use x="170.849609" xlink:href="#DejaVuSans-110"/>
       <use x="234.228516" xlink:href="#DejaVuSans-101"/>
       <use x="295.736328" xlink:href="#DejaVuSans-120"/>
       <use x="354.916016" xlink:href="#DejaVuSans-116"/>
       <use x="394.125" xlink:href="#DejaVuSans-46"/>
       <use x="425.912109" xlink:href="#DejaVuSans-101"/>
       <use x="487.419922" xlink:href="#DejaVuSans-120"/>
      </g>
     </g>
    </g>
    <g id="ytick_18">
     <g id="line2d_22">
      <path clip-path="url(#pf0ebb1d498)" d="M 138.24 210.805865 
L 368.64 210.805865 
" style="fill:none;stroke:#cccccc;stroke-linecap:round;"/>
     </g>
     <g id="text_22">
      <!-- Integrator -->
      <g style="fill:#262626;" transform="translate(73.631719 214.985006)scale(0.11 -0.11)">
       <use xlink:href="#DejaVuSans-73"/>
       <use x="29.492188" xlink:href="#DejaVuSans-110"/>
       <use x="92.871094" xlink:href="#DejaVuSans-116"/>
       <use x="132.080078" xlink:href="#DejaVuSans-101"/>
       <use x="193.603516" xlink:href="#DejaVuSans-103"/>
       <use x="257.080078" xlink:href="#DejaVuSans-114"/>
       <use x="298.193359" xlink:href="#DejaVuSans-97"/>
       <use x="359.472656" xlink:href="#DejaVuSans-116"/>
       <use x="398.681641" xlink:href="#DejaVuSans-111"/>
       <use x="459.863281" xlink:href="#DejaVuSans-114"/>
      </g>
     </g>
    </g>
    <g id="ytick_19">
     <g id="line2d_23">
      <path clip-path="url(#pf0ebb1d498)" d="M 138.24 218.407038 
L 368.64 218.407038 
" style="fill:none;stroke:#cccccc;stroke-linecap:round;"/>
     </g>
     <g id="text_23">
      <!-- LogTranspo -->
      <defs>
       <path d="M 9.8125 72.90625 
L 19.671875 72.90625 
L 19.671875 8.296875 
L 55.171875 8.296875 
L 55.171875 0 
L 9.8125 0 
z
" id="DejaVuSans-76"/>
      </defs>
      <g style="fill:#262626;" transform="translate(64.525781 222.586179)scale(0.11 -0.11)">
       <use xlink:href="#DejaVuSans-76"/>
       <use x="55.697266" xlink:href="#DejaVuSans-111"/>
       <use x="116.878906" xlink:href="#DejaVuSans-103"/>
       <use x="180.355469" xlink:href="#DejaVuSans-84"/>
       <use x="241.220703" xlink:href="#DejaVuSans-114"/>
       <use x="282.333984" xlink:href="#DejaVuSans-97"/>
       <use x="343.613281" xlink:href="#DejaVuSans-110"/>
       <use x="406.992188" xlink:href="#DejaVuSans-115"/>
       <use x="459.091797" xlink:href="#DejaVuSans-112"/>
       <use x="522.568359" xlink:href="#DejaVuSans-111"/>
      </g>
     </g>
    </g>
    <g id="ytick_20">
     <g id="line2d_24">
      <path clip-path="url(#pf0ebb1d498)" d="M 138.24 226.008211 
L 368.64 226.008211 
" style="fill:none;stroke:#cccccc;stroke-linecap:round;"/>
     </g>
     <g id="text_24">
      <!-- NvSHIM.exe -->
      <defs>
       <path d="M 53.515625 70.515625 
L 53.515625 60.890625 
Q 47.90625 63.578125 42.921875 64.890625 
Q 37.9375 66.21875 33.296875 66.21875 
Q 25.25 66.21875 20.875 63.09375 
Q 16.5 59.96875 16.5 54.203125 
Q 16.5 49.359375 19.40625 46.890625 
Q 22.3125 44.4375 30.421875 42.921875 
L 36.375 41.703125 
Q 47.40625 39.59375 52.65625 34.296875 
Q 57.90625 29 57.90625 20.125 
Q 57.90625 9.515625 50.796875 4.046875 
Q 43.703125 -1.421875 29.984375 -1.421875 
Q 24.8125 -1.421875 18.96875 -0.25 
Q 13.140625 0.921875 6.890625 3.21875 
L 6.890625 13.375 
Q 12.890625 10.015625 18.65625 8.296875 
Q 24.421875 6.59375 29.984375 6.59375 
Q 38.421875 6.59375 43.015625 9.90625 
Q 47.609375 13.234375 47.609375 19.390625 
Q 47.609375 24.75 44.3125 27.78125 
Q 41.015625 30.8125 33.5 32.328125 
L 27.484375 33.5 
Q 16.453125 35.6875 11.515625 40.375 
Q 6.59375 45.0625 6.59375 53.421875 
Q 6.59375 63.09375 13.40625 68.65625 
Q 20.21875 74.21875 32.171875 74.21875 
Q 37.3125 74.21875 42.625 73.28125 
Q 47.953125 72.359375 53.515625 70.515625 
z
" id="DejaVuSans-83"/>
       <path d="M 9.8125 72.90625 
L 19.671875 72.90625 
L 19.671875 43.015625 
L 55.515625 43.015625 
L 55.515625 72.90625 
L 65.375 72.90625 
L 65.375 0 
L 55.515625 0 
L 55.515625 34.71875 
L 19.671875 34.71875 
L 19.671875 0 
L 9.8125 0 
z
" id="DejaVuSans-72"/>
      </defs>
      <g style="fill:#262626;" transform="translate(62.471875 230.187352)scale(0.11 -0.11)">
       <use xlink:href="#DejaVuSans-78"/>
       <use x="74.804688" xlink:href="#DejaVuSans-118"/>
       <use x="133.984375" xlink:href="#DejaVuSans-83"/>
       <use x="197.460938" xlink:href="#DejaVuSans-72"/>
       <use x="272.65625" xlink:href="#DejaVuSans-73"/>
       <use x="302.148438" xlink:href="#DejaVuSans-77"/>
       <use x="388.427734" xlink:href="#DejaVuSans-46"/>
       <use x="420.214844" xlink:href="#DejaVuSans-101"/>
       <use x="481.722656" xlink:href="#DejaVuSans-120"/>
       <use x="540.855469" xlink:href="#DejaVuSans-101"/>
      </g>
     </g>
    </g>
    <g id="ytick_21">
     <g id="line2d_25">
      <path clip-path="url(#pf0ebb1d498)" d="M 138.24 233.609384 
L 368.64 233.609384 
" style="fill:none;stroke:#cccccc;stroke-linecap:round;"/>
     </g>
     <g id="text_25">
      <!-- ScLcQueryR -->
      <defs>
       <path d="M 39.40625 66.21875 
Q 28.65625 66.21875 22.328125 58.203125 
Q 16.015625 50.203125 16.015625 36.375 
Q 16.015625 22.609375 22.328125 14.59375 
Q 28.65625 6.59375 39.40625 6.59375 
Q 50.140625 6.59375 56.421875 14.59375 
Q 62.703125 22.609375 62.703125 36.375 
Q 62.703125 50.203125 56.421875 58.203125 
Q 50.140625 66.21875 39.40625 66.21875 
z
M 53.21875 1.3125 
L 66.21875 -12.890625 
L 54.296875 -12.890625 
L 43.5 -1.21875 
Q 41.890625 -1.3125 41.03125 -1.359375 
Q 40.1875 -1.421875 39.40625 -1.421875 
Q 24.03125 -1.421875 14.8125 8.859375 
Q 5.609375 19.140625 5.609375 36.375 
Q 5.609375 53.65625 14.8125 63.9375 
Q 24.03125 74.21875 39.40625 74.21875 
Q 54.734375 74.21875 63.90625 63.9375 
Q 73.09375 53.65625 73.09375 36.375 
Q 73.09375 23.6875 67.984375 14.640625 
Q 62.890625 5.609375 53.21875 1.3125 
z
" id="DejaVuSans-81"/>
       <path d="M 32.171875 -5.078125 
Q 28.375 -14.84375 24.75 -17.8125 
Q 21.140625 -20.796875 15.09375 -20.796875 
L 7.90625 -20.796875 
L 7.90625 -13.28125 
L 13.1875 -13.28125 
Q 16.890625 -13.28125 18.9375 -11.515625 
Q 21 -9.765625 23.484375 -3.21875 
L 25.09375 0.875 
L 2.984375 54.6875 
L 12.5 54.6875 
L 29.59375 11.921875 
L 46.6875 54.6875 
L 56.203125 54.6875 
z
" id="DejaVuSans-121"/>
      </defs>
      <g style="fill:#262626;" transform="translate(62.456406 237.788525)scale(0.11 -0.11)">
       <use xlink:href="#DejaVuSans-83"/>
       <use x="63.476562" xlink:href="#DejaVuSans-99"/>
       <use x="118.457031" xlink:href="#DejaVuSans-76"/>
       <use x="174.169922" xlink:href="#DejaVuSans-99"/>
       <use x="229.150391" xlink:href="#DejaVuSans-81"/>
       <use x="307.861328" xlink:href="#DejaVuSans-117"/>
       <use x="371.240234" xlink:href="#DejaVuSans-101"/>
       <use x="432.763672" xlink:href="#DejaVuSans-114"/>
       <use x="473.876953" xlink:href="#DejaVuSans-121"/>
       <use x="533.056641" xlink:href="#DejaVuSans-82"/>
      </g>
     </g>
    </g>
    <g id="ytick_22">
     <g id="line2d_26">
      <path clip-path="url(#pf0ebb1d498)" d="M 138.24 241.210557 
L 368.64 241.210557 
" style="fill:none;stroke:#cccccc;stroke-linecap:round;"/>
     </g>
     <g id="text_26">
      <!-- SrTasks.ex -->
      <g style="fill:#262626;" transform="translate(69.199063 245.389698)scale(0.11 -0.11)">
       <use xlink:href="#DejaVuSans-83"/>
       <use x="63.476562" xlink:href="#DejaVuSans-114"/>
       <use x="104.589844" xlink:href="#DejaVuSans-84"/>
       <use x="165.423828" xlink:href="#DejaVuSans-97"/>
       <use x="226.703125" xlink:href="#DejaVuSans-115"/>
       <use x="278.802734" xlink:href="#DejaVuSans-107"/>
       <use x="336.712891" xlink:href="#DejaVuSans-115"/>
       <use x="388.8125" xlink:href="#DejaVuSans-46"/>
       <use x="420.599609" xlink:href="#DejaVuSans-101"/>
       <use x="482.107422" xlink:href="#DejaVuSans-120"/>
      </g>
     </g>
    </g>
    <g id="ytick_23">
     <g id="line2d_27">
      <path clip-path="url(#pf0ebb1d498)" d="M 138.24 248.81173 
L 368.64 248.81173 
" style="fill:none;stroke:#cccccc;stroke-linecap:round;"/>
     </g>
     <g id="text_27">
      <!-- appidcerts -->
      <g style="fill:#262626;" transform="translate(70.611875 252.990871)scale(0.11 -0.11)">
       <use xlink:href="#DejaVuSans-97"/>
       <use x="61.279297" xlink:href="#DejaVuSans-112"/>
       <use x="124.755859" xlink:href="#DejaVuSans-112"/>
       <use x="188.232422" xlink:href="#DejaVuSans-105"/>
       <use x="216.015625" xlink:href="#DejaVuSans-100"/>
       <use x="279.492188" xlink:href="#DejaVuSans-99"/>
       <use x="334.472656" xlink:href="#DejaVuSans-101"/>
       <use x="395.996094" xlink:href="#DejaVuSans-114"/>
       <use x="437.109375" xlink:href="#DejaVuSans-116"/>
       <use x="476.318359" xlink:href="#DejaVuSans-115"/>
      </g>
     </g>
    </g>
    <g id="ytick_24">
     <g id="line2d_28">
      <path clip-path="url(#pf0ebb1d498)" d="M 138.24 256.412903 
L 368.64 256.412903 
" style="fill:none;stroke:#cccccc;stroke-linecap:round;"/>
     </g>
     <g id="text_28">
      <!-- lnsscoroll -->
      <g style="fill:#262626;" transform="translate(77.112188 260.592044)scale(0.11 -0.11)">
       <use xlink:href="#DejaVuSans-108"/>
       <use x="27.783203" xlink:href="#DejaVuSans-110"/>
       <use x="91.162109" xlink:href="#DejaVuSans-115"/>
       <use x="143.261719" xlink:href="#DejaVuSans-115"/>
       <use x="195.361328" xlink:href="#DejaVuSans-99"/>
       <use x="250.341797" xlink:href="#DejaVuSans-111"/>
       <use x="311.523438" xlink:href="#DejaVuSans-114"/>
       <use x="352.605469" xlink:href="#DejaVuSans-111"/>
       <use x="413.787109" xlink:href="#DejaVuSans-108"/>
       <use x="441.570312" xlink:href="#DejaVuSans-108"/>
      </g>
     </g>
    </g>
    <g id="ytick_25">
     <g id="line2d_29">
      <path clip-path="url(#pf0ebb1d498)" d="M 138.24 264.014076 
L 368.64 264.014076 
" style="fill:none;stroke:#cccccc;stroke-linecap:round;"/>
     </g>
     <g id="text_29">
      <!-- wmiproc.ex -->
      <g style="fill:#262626;" transform="translate(64.919375 268.193217)scale(0.11 -0.11)">
       <use xlink:href="#DejaVuSans-119"/>
       <use x="81.787109" xlink:href="#DejaVuSans-109"/>
       <use x="179.199219" xlink:href="#DejaVuSans-105"/>
       <use x="206.982422" xlink:href="#DejaVuSans-112"/>
       <use x="270.458984" xlink:href="#DejaVuSans-114"/>
       <use x="311.541016" xlink:href="#DejaVuSans-111"/>
       <use x="372.722656" xlink:href="#DejaVuSans-99"/>
       <use x="427.703125" xlink:href="#DejaVuSans-46"/>
       <use x="459.490234" xlink:href="#DejaVuSans-101"/>
       <use x="520.998047" xlink:href="#DejaVuSans-120"/>
      </g>
     </g>
    </g>
    <g id="text_30">
     <!-- OsqueryFilter.parentname -->
     <defs>
      <path d="M 39.40625 66.21875 
Q 28.65625 66.21875 22.328125 58.203125 
Q 16.015625 50.203125 16.015625 36.375 
Q 16.015625 22.609375 22.328125 14.59375 
Q 28.65625 6.59375 39.40625 6.59375 
Q 50.140625 6.59375 56.421875 14.59375 
Q 62.703125 22.609375 62.703125 36.375 
Q 62.703125 50.203125 56.421875 58.203125 
Q 50.140625 66.21875 39.40625 66.21875 
z
M 39.40625 74.21875 
Q 54.734375 74.21875 63.90625 63.9375 
Q 73.09375 53.65625 73.09375 36.375 
Q 73.09375 19.140625 63.90625 8.859375 
Q 54.734375 -1.421875 39.40625 -1.421875 
Q 24.03125 -1.421875 14.8125 8.828125 
Q 5.609375 19.09375 5.609375 36.375 
Q 5.609375 53.65625 14.8125 63.9375 
Q 24.03125 74.21875 39.40625 74.21875 
z
" id="DejaVuSans-79"/>
      <path d="M 14.796875 27.296875 
Q 14.796875 17.390625 18.875 11.75 
Q 22.953125 6.109375 30.078125 6.109375 
Q 37.203125 6.109375 41.296875 11.75 
Q 45.40625 17.390625 45.40625 27.296875 
Q 45.40625 37.203125 41.296875 42.84375 
Q 37.203125 48.484375 30.078125 48.484375 
Q 22.953125 48.484375 18.875 42.84375 
Q 14.796875 37.203125 14.796875 27.296875 
z
M 45.40625 8.203125 
Q 42.578125 3.328125 38.25 0.953125 
Q 33.9375 -1.421875 27.875 -1.421875 
Q 17.96875 -1.421875 11.734375 6.484375 
Q 5.515625 14.40625 5.515625 27.296875 
Q 5.515625 40.1875 11.734375 48.09375 
Q 17.96875 56 27.875 56 
Q 33.9375 56 38.25 53.625 
Q 42.578125 51.265625 45.40625 46.390625 
L 45.40625 54.6875 
L 54.390625 54.6875 
L 54.390625 -20.796875 
L 45.40625 -20.796875 
z
" id="DejaVuSans-113"/>
      <path d="M 9.8125 72.90625 
L 51.703125 72.90625 
L 51.703125 64.59375 
L 19.671875 64.59375 
L 19.671875 43.109375 
L 48.578125 43.109375 
L 48.578125 34.8125 
L 19.671875 34.8125 
L 19.671875 0 
L 9.8125 0 
z
" id="DejaVuSans-70"/>
     </defs>
     <g style="fill:#262626;" transform="translate(46.456094 251.97)rotate(-90)scale(0.12 -0.12)">
      <use xlink:href="#DejaVuSans-79"/>
      <use x="78.710938" xlink:href="#DejaVuSans-115"/>
      <use x="130.810547" xlink:href="#DejaVuSans-113"/>
      <use x="194.287109" xlink:href="#DejaVuSans-117"/>
      <use x="257.666016" xlink:href="#DejaVuSans-101"/>
      <use x="319.189453" xlink:href="#DejaVuSans-114"/>
      <use x="360.302734" xlink:href="#DejaVuSans-121"/>
      <use x="419.482422" xlink:href="#DejaVuSans-70"/>
      <use x="476.892578" xlink:href="#DejaVuSans-105"/>
      <use x="504.675781" xlink:href="#DejaVuSans-108"/>
      <use x="532.458984" xlink:href="#DejaVuSans-116"/>
      <use x="571.667969" xlink:href="#DejaVuSans-101"/>
      <use x="633.191406" xlink:href="#DejaVuSans-114"/>
      <use x="674.164062" xlink:href="#DejaVuSans-46"/>
      <use x="705.951172" xlink:href="#DejaVuSans-112"/>
      <use x="769.427734" xlink:href="#DejaVuSans-97"/>
      <use x="830.707031" xlink:href="#DejaVuSans-114"/>
      <use x="871.789062" xlink:href="#DejaVuSans-101"/>
      <use x="933.3125" xlink:href="#DejaVuSans-110"/>
      <use x="996.691406" xlink:href="#DejaVuSans-116"/>
      <use x="1035.900391" xlink:href="#DejaVuSans-110"/>
      <use x="1099.279297" xlink:href="#DejaVuSans-97"/>
      <use x="1160.558594" xlink:href="#DejaVuSans-109"/>
      <use x="1257.970703" xlink:href="#DejaVuSans-101"/>
     </g>
    </g>
   </g>
   <g id="patch_3">
    <path clip-path="url(#pf0ebb1d498)" d="M -57247.114414 78.545455 
L 358.491425 78.545455 
L 358.491425 84.626393 
L -57247.114414 84.626393 
z
" style="fill:#4c72b0;stroke:#ffffff;stroke-linejoin:miter;"/>
   </g>
   <g id="patch_4">
    <path clip-path="url(#pf0ebb1d498)" d="M -57247.114414 86.146628 
L 228.92374 86.146628 
L 228.92374 92.227566 
L -57247.114414 92.227566 
z
" style="fill:#4c72b0;stroke:#ffffff;stroke-linejoin:miter;"/>
   </g>
   <g id="patch_5">
    <path clip-path="url(#pf0ebb1d498)" d="M -57247.114414 93.747801 
L 253.538941 93.747801 
L 253.538941 99.828739 
L -57247.114414 99.828739 
z
" style="fill:#4c72b0;stroke:#ffffff;stroke-linejoin:miter;"/>
   </g>
   <g id="patch_6">
    <path clip-path="url(#pf0ebb1d498)" d="M -57247.114414 101.348974 
L 272.473563 101.348974 
L 272.473563 107.429912 
L -57247.114414 107.429912 
z
" style="fill:#4c72b0;stroke:#ffffff;stroke-linejoin:miter;"/>
   </g>
   <g id="patch_7">
    <path clip-path="url(#pf0ebb1d498)" d="M -57247.114414 108.950147 
L 248.097957 108.950147 
L 248.097957 115.031085 
L -57247.114414 115.031085 
z
" style="fill:#4c72b0;stroke:#ffffff;stroke-linejoin:miter;"/>
   </g>
   <g id="patch_8">
    <path clip-path="url(#pf0ebb1d498)" d="M -57247.114414 116.55132 
L 325.404066 116.55132 
L 325.404066 122.632258 
L -57247.114414 122.632258 
z
" style="fill:#4c72b0;stroke:#ffffff;stroke-linejoin:miter;"/>
   </g>
   <g id="patch_9">
    <path clip-path="url(#pf0ebb1d498)" d="M -57247.114414 124.152493 
L 332.314545 124.152493 
L 332.314545 130.233431 
L -57247.114414 130.233431 
z
" style="fill:#4c72b0;stroke:#ffffff;stroke-linejoin:miter;"/>
   </g>
   <g id="patch_10">
    <path clip-path="url(#pf0ebb1d498)" d="M -57247.114414 131.753666 
L 268.782651 131.753666 
L 268.782651 137.834604 
L -57247.114414 137.834604 
z
" style="fill:#4c72b0;stroke:#ffffff;stroke-linejoin:miter;"/>
   </g>
   <g id="patch_11">
    <path clip-path="url(#pf0ebb1d498)" d="M -57247.114414 139.354839 
L 357.881652 139.354839 
L 357.881652 145.435777 
L -57247.114414 145.435777 
z
" style="fill:#4c72b0;stroke:#ffffff;stroke-linejoin:miter;"/>
   </g>
   <g id="patch_12">
    <path clip-path="url(#pf0ebb1d498)" d="M -57247.114414 146.956012 
L 356.141489 146.956012 
L 356.141489 153.03695 
L -57247.114414 153.03695 
z
" style="fill:#4c72b0;stroke:#ffffff;stroke-linejoin:miter;"/>
   </g>
   <g id="patch_13">
    <path clip-path="url(#pf0ebb1d498)" d="M -57247.114414 154.557185 
L 277.056865 154.557185 
L 277.056865 160.638123 
L -57247.114414 160.638123 
z
" style="fill:#4c72b0;stroke:#ffffff;stroke-linejoin:miter;"/>
   </g>
   <g id="patch_14">
    <path clip-path="url(#pf0ebb1d498)" d="M -57247.114414 162.158358 
L 210.295949 162.158358 
L 210.295949 168.239296 
L -57247.114414 168.239296 
z
" style="fill:#4c72b0;stroke:#ffffff;stroke-linejoin:miter;"/>
   </g>
   <g id="patch_15">
    <path clip-path="url(#pf0ebb1d498)" d="M -57247.114414 169.759531 
L 200.187846 169.759531 
L 200.187846 175.840469 
L -57247.114414 175.840469 
z
" style="fill:#4c72b0;stroke:#ffffff;stroke-linejoin:miter;"/>
   </g>
   <g id="patch_16">
    <path clip-path="url(#pf0ebb1d498)" d="M -57247.114414 177.360704 
L 298.043399 177.360704 
L 298.043399 183.441642 
L -57247.114414 183.441642 
z
" style="fill:#4c72b0;stroke:#ffffff;stroke-linejoin:miter;"/>
   </g>
   <g id="patch_17">
    <path clip-path="url(#pf0ebb1d498)" d="M -57247.114414 184.961877 
L 335.79335 184.961877 
L 335.79335 191.042815 
L -57247.114414 191.042815 
z
" style="fill:#4c72b0;stroke:#ffffff;stroke-linejoin:miter;"/>
   </g>
   <g id="patch_18">
    <path clip-path="url(#pf0ebb1d498)" d="M -57247.114414 192.56305 
L 292.15031 192.56305 
L 292.15031 198.643988 
L -57247.114414 198.643988 
z
" style="fill:#4c72b0;stroke:#ffffff;stroke-linejoin:miter;"/>
   </g>
   <g id="patch_19">
    <path clip-path="url(#pf0ebb1d498)" d="M -57247.114414 200.164223 
L 272.701233 200.164223 
L 272.701233 206.245161 
L -57247.114414 206.245161 
z
" style="fill:#4c72b0;stroke:#ffffff;stroke-linejoin:miter;"/>
   </g>
   <g id="patch_20">
    <path clip-path="url(#pf0ebb1d498)" d="M -57247.114414 207.765396 
L 155.519915 207.765396 
L 155.519915 213.846334 
L -57247.114414 213.846334 
z
" style="fill:#dd8452;stroke:#ffffff;stroke-linejoin:miter;"/>
   </g>
   <g id="patch_21">
    <path clip-path="url(#pf0ebb1d498)" d="M -57247.114414 215.366569 
L 182.907932 215.366569 
L 182.907932 221.447507 
L -57247.114414 221.447507 
z
" style="fill:#dd8452;stroke:#ffffff;stroke-linejoin:miter;"/>
   </g>
   <g id="patch_22">
    <path clip-path="url(#pf0ebb1d498)" d="M -57247.114414 222.967742 
L 155.519915 222.967742 
L 155.519915 229.04868 
L -57247.114414 229.04868 
z
" style="fill:#dd8452;stroke:#ffffff;stroke-linejoin:miter;"/>
   </g>
   <g id="patch_23">
    <path clip-path="url(#pf0ebb1d498)" d="M -57247.114414 230.568915 
L 190.079744 230.568915 
L 190.079744 236.649853 
L -57247.114414 236.649853 
z
" style="fill:#dd8452;stroke:#ffffff;stroke-linejoin:miter;"/>
   </g>
   <g id="patch_24">
    <path clip-path="url(#pf0ebb1d498)" d="M -57247.114414 238.170088 
L 155.519915 238.170088 
L 155.519915 244.251026 
L -57247.114414 244.251026 
z
" style="fill:#dd8452;stroke:#ffffff;stroke-linejoin:miter;"/>
   </g>
   <g id="patch_25">
    <path clip-path="url(#pf0ebb1d498)" d="M -57247.114414 245.771261 
L 172.79983 245.771261 
L 172.79983 251.852199 
L -57247.114414 251.852199 
z
" style="fill:#dd8452;stroke:#ffffff;stroke-linejoin:miter;"/>
   </g>
   <g id="patch_26">
    <path clip-path="url(#pf0ebb1d498)" d="M -57247.114414 253.372434 
L 172.79983 253.372434 
L 172.79983 259.453372 
L -57247.114414 259.453372 
z
" style="fill:#dd8452;stroke:#ffffff;stroke-linejoin:miter;"/>
   </g>
   <g id="patch_27">
    <path clip-path="url(#pf0ebb1d498)" d="M -57247.114414 260.973607 
L 155.519915 260.973607 
L 155.519915 267.054545 
L -57247.114414 267.054545 
z
" style="fill:#dd8452;stroke:#ffffff;stroke-linejoin:miter;"/>
   </g>
   <g id="patch_28">
    <path d="M 138.24 276.48 
L 138.24 69.12 
" style="fill:none;stroke:#cccccc;stroke-linecap:square;stroke-linejoin:miter;stroke-width:1.25;"/>
   </g>
   <g id="patch_29">
    <path d="M 368.64 276.48 
L 368.64 69.12 
" style="fill:none;stroke:#cccccc;stroke-linecap:square;stroke-linejoin:miter;stroke-width:1.25;"/>
   </g>
   <g id="patch_30">
    <path d="M 138.24 276.48 
L 368.64 276.48 
" style="fill:none;stroke:#cccccc;stroke-linecap:square;stroke-linejoin:miter;stroke-width:1.25;"/>
   </g>
   <g id="patch_31">
    <path d="M 138.24 69.12 
L 368.64 69.12 
" style="fill:none;stroke:#cccccc;stroke-linecap:square;stroke-linejoin:miter;stroke-width:1.25;"/>
   </g>
   <g id="text_31">
    <!-- Count of parentname for conhost.exe -->
    <g style="fill:#262626;" transform="translate(140.585625 63.12)scale(0.12 -0.12)">
     <use xlink:href="#DejaVuSans-67"/>
     <use x="69.824219" xlink:href="#DejaVuSans-111"/>
     <use x="131.005859" xlink:href="#DejaVuSans-117"/>
     <use x="194.384766" xlink:href="#DejaVuSans-110"/>
     <use x="257.763672" xlink:href="#DejaVuSans-116"/>
     <use x="296.972656" xlink:href="#DejaVuSans-32"/>
     <use x="328.759766" xlink:href="#DejaVuSans-111"/>
     <use x="389.941406" xlink:href="#DejaVuSans-102"/>
     <use x="425.146484" xlink:href="#DejaVuSans-32"/>
     <use x="456.933594" xlink:href="#DejaVuSans-112"/>
     <use x="520.410156" xlink:href="#DejaVuSans-97"/>
     <use x="581.689453" xlink:href="#DejaVuSans-114"/>
     <use x="622.771484" xlink:href="#DejaVuSans-101"/>
     <use x="684.294922" xlink:href="#DejaVuSans-110"/>
     <use x="747.673828" xlink:href="#DejaVuSans-116"/>
     <use x="786.882812" xlink:href="#DejaVuSans-110"/>
     <use x="850.261719" xlink:href="#DejaVuSans-97"/>
     <use x="911.541016" xlink:href="#DejaVuSans-109"/>
     <use x="1008.953125" xlink:href="#DejaVuSans-101"/>
     <use x="1070.476562" xlink:href="#DejaVuSans-32"/>
     <use x="1102.263672" xlink:href="#DejaVuSans-102"/>
     <use x="1137.46875" xlink:href="#DejaVuSans-111"/>
     <use x="1198.650391" xlink:href="#DejaVuSans-114"/>
     <use x="1239.763672" xlink:href="#DejaVuSans-32"/>
     <use x="1271.550781" xlink:href="#DejaVuSans-99"/>
     <use x="1326.53125" xlink:href="#DejaVuSans-111"/>
     <use x="1387.712891" xlink:href="#DejaVuSans-110"/>
     <use x="1451.091797" xlink:href="#DejaVuSans-104"/>
     <use x="1514.470703" xlink:href="#DejaVuSans-111"/>
     <use x="1575.652344" xlink:href="#DejaVuSans-115"/>
     <use x="1627.751953" xlink:href="#DejaVuSans-116"/>
     <use x="1666.960938" xlink:href="#DejaVuSans-46"/>
     <use x="1698.748047" xlink:href="#DejaVuSans-101"/>
     <use x="1760.255859" xlink:href="#DejaVuSans-120"/>
     <use x="1819.388672" xlink:href="#DejaVuSans-101"/>
    </g>
   </g>
   <g id="legend_1">
    <g id="patch_32">
     <path d="M 282.664688 270.98 
L 360.94 270.98 
Q 363.14 270.98 363.14 268.78 
L 363.14 237.588125 
Q 363.14 235.388125 360.94 235.388125 
L 282.664688 235.388125 
Q 280.464688 235.388125 280.464688 237.588125 
L 280.464688 268.78 
Q 280.464688 270.98 282.664688 270.98 
z
" style="fill:#ffffff;opacity:0.8;stroke:#cccccc;stroke-linejoin:miter;"/>
    </g>
    <g id="patch_33">
     <path d="M 284.864688 248.146406 
L 306.864688 248.146406 
L 306.864688 240.446406 
L 284.864688 240.446406 
z
" style="fill:#4c72b0;stroke:#ffffff;stroke-linejoin:miter;"/>
    </g>
    <g id="text_32">
     <!-- Data -->
     <g style="fill:#262626;" transform="translate(315.664688 248.146406)scale(0.11 -0.11)">
      <use xlink:href="#DejaVuSans-68"/>
      <use x="77.001953" xlink:href="#DejaVuSans-97"/>
      <use x="138.28125" xlink:href="#DejaVuSans-116"/>
      <use x="177.490234" xlink:href="#DejaVuSans-97"/>
     </g>
    </g>
    <g id="patch_34">
     <path d="M 284.864688 264.292344 
L 306.864688 264.292344 
L 306.864688 256.592344 
L 284.864688 256.592344 
z
" style="fill:#dd8452;stroke:#ffffff;stroke-linejoin:miter;"/>
    </g>
    <g id="text_33">
     <!-- Outliers -->
     <g style="fill:#262626;" transform="translate(315.664688 264.292344)scale(0.11 -0.11)">
      <use xlink:href="#DejaVuSans-79"/>
      <use x="78.710938" xlink:href="#DejaVuSans-117"/>
      <use x="142.089844" xlink:href="#DejaVuSans-116"/>
      <use x="181.298828" xlink:href="#DejaVuSans-108"/>
      <use x="209.082031" xlink:href="#DejaVuSans-105"/>
      <use x="236.865234" xlink:href="#DejaVuSans-101"/>
      <use x="298.388672" xlink:href="#DejaVuSans-114"/>
      <use x="339.501953" xlink:href="#DejaVuSans-115"/>
     </g>
    </g>
   </g>
  </g>
 </g>
 <defs>
  <clipPath id="pf0ebb1d498">
   <rect height="207.36" width="230.4" x="138.24" y="69.12"/>
  </clipPath>
 </defs>
</svg>
